# xmcd
#
# Track frame offsets:
#      150
#      20298
#      36342
#      56560
#      78366
#      102227
#      118542
#      154915
#      171588
#      188605
# 
# Disc length: 2677 seconds
#
# Revision: 7
# Processed by: cddbd v1.4PL0 Copyright (c) Steve Scherf et al.
#
# Submitted via: FreeRIP 1.21
#
DISCID=7b0a730a
DTITLE=Matthew Keppler - beginnings
DYEAR=2002
DGENRE=Classical
TTITLE0=first tears
TTITLE1=you just know
TTITLE2=ballad for keith
TTITLE3=when you are with me
TTITLE4=variations on jesu
TTITLE5=genesis
TTITLE6=angels
TTITLE7=goodnight moon
TTITLE8=time in a bottle
TTITLE9=lullaby
EXTD=YEAR: 1999 ID3G: 2
EXTT0=
EXTT1=
EXTT2=
EXTT3=
EXTT4=
EXTT5=
EXTT6=
EXTT7=
EXTT8=
EXTT9=
PLAYORDER=
